<?xml version="1.0" standalone="no"?>
<!DOCTYPE svg PUBLIC "-//W3C//DTD SVG 20010904//EN"
 "http://www.w3.org/TR/2001/REC-SVG-20010904/DTD/svg10.dtd">
<svg version="1.0" xmlns="http://www.w3.org/2000/svg"
 width="685.000000pt" height="680.000000pt" viewBox="0 0 685.000000 680.000000"
 preserveAspectRatio="xMidYMid meet">

<g transform="translate(0.000000,680.000000) scale(0.100000,-0.100000)"
fill="#000000" stroke="none">
<path d="M3348 5615 c-17 -20 -38 -33 -45 -30 -17 6 -53 -15 -53 -32 0 -6 -8
-14 -17 -16 -17 -4 -17 -5 -1 -6 10 0 22 8 28 19 6 11 18 20 28 20 11 0 1 -15
-31 -46 -36 -36 -44 -50 -36 -60 9 -11 18 -10 49 6 21 10 40 16 44 13 3 -4 6
0 6 8 0 9 10 26 21 38 17 18 23 20 30 9 7 -10 9 -8 9 7 0 11 7 29 16 40 13 17
16 18 24 5 9 -13 10 -13 11 0 1 8 1 21 0 28 -1 6 6 12 16 13 16 0 16 1 -2 9
-39 17 -64 10 -97 -25z"/>
<path d="M3290 5633 c8 -3 19 -11 23 -17 6 -7 7 -6 4 4 -2 8 -12 16 -23 17
-13 2 -15 1 -4 -4z"/>
<path d="M3508 5623 c7 -3 16 -2 19 1 4 3 -2 6 -13 5 -11 0 -14 -3 -6 -6z"/>
<path d="M3015 5594 c-14 -15 -25 -32 -25 -37 0 -6 -8 -28 -17 -49 -12 -28
-21 -37 -34 -33 -10 3 -21 0 -25 -6 -5 -9 -2 -10 9 -6 21 8 22 -17 3 -55 -10
-18 -11 -30 -4 -34 15 -9 54 15 69 42 9 18 15 21 21 12 6 -9 7 -6 4 8 -4 12 6
45 24 82 16 34 30 67 30 72 0 6 8 10 18 11 14 0 14 2 -3 9 -33 14 -45 11 -70
-16z"/>
<path d="M3645 5590 c3 -5 8 -10 11 -10 2 0 4 5 4 10 0 6 -5 10 -11 10 -5 0
-7 -4 -4 -10z"/>
<path d="M3710 5557 c-14 -6 -27 -14 -30 -17 -16 -16 -102 -49 -117 -43 -12 5
-15 2 -10 -9 4 -11 -1 -18 -14 -21 -26 -7 -24 -24 5 -31 25 -6 99 15 123 36
10 8 17 7 26 -6 12 -16 14 -16 35 3 14 12 19 22 12 26 -5 3 -10 1 -10 -4 0 -6
-8 -11 -17 -11 -15 0 -14 2 3 15 10 8 31 15 47 15 22 0 27 4 27 25 0 15 -6 25
-14 25 -8 0 -20 2 -28 4 -7 3 -24 -1 -38 -7z"/>
<path d="M3655 5550 c-3 -5 -1 -10 4 -10 6 0 11 5 11 10 0 6 -2 10 -4 10 -3 0
-8 -4 -11 -10z"/>
<path d="M3590 5535 c0 -17 2 -18 24 -9 18 7 12 24 -10 24 -8 0 -14 -7 -14
-15z"/>
<path d="M3396 5514 c-4 -10 -1 -14 6 -12 15 5 23 28 10 28 -5 0 -13 -7 -16
-16z"/>
<path d="M2840 5493 c-25 -14 -24 -14 14 -9 22 3 44 10 50 16 16 16 -35 11
-64 -7z"/>
<path d="M2795 5490 c-3 -5 -1 -10 4 -10 6 0 11 5 11 10 0 6 -2 10 -4 10 -3 0
-8 -4 -11 -10z"/>
<path d="M3155 5491 c-19 -8 -19 -8 2 -15 25 -8 46 0 38 15 -7 10 -13 10 -40
0z"/>
<path d="M2716 5457 c-20 -20 -26 -36 -26 -67 0 -46 -16 -84 -31 -75 -5 4 -9
1 -9 -4 0 -6 6 -11 14 -11 10 0 13 -14 12 -51 0 -33 3 -53 11 -56 21 -8 53 58
53 110 0 26 4 47 9 47 9 0 7 117 -2 127 -3 3 -17 -6 -31 -20z"/>
<path d="M2772 5430 c0 -14 2 -19 5 -12 2 6 2 18 0 25 -3 6 -5 1 -5 -13z"/>
<path d="M2884 5429 c-3 -6 -1 -16 5 -22 8 -8 11 -5 11 11 0 24 -5 28 -16 11z"/>
<path d="M3221 5424 c0 -11 3 -14 6 -6 3 7 2 16 -1 19 -3 4 -6 -2 -5 -13z"/>
<path d="M3930 5400 c0 -5 5 -10 10 -10 6 0 10 5 10 10 0 6 -4 10 -10 10 -5 0
-10 -4 -10 -10z"/>
<path d="M3980 5401 c0 -6 10 -11 22 -11 39 0 10 -12 -37 -16 -28 -1 -45 2
-45 9 0 6 -6 3 -12 -6 -8 -10 -30 -17 -56 -19 -47 -2 -61 -13 -43 -31 17 -17
191 -26 191 -9 0 8 16 12 45 12 61 0 60 23 -2 52 -27 12 -51 23 -55 25 -5 2
-8 -1 -8 -6z"/>
<path d="M3820 5390 l-35 -8 42 1 c23 0 40 4 37 9 -3 4 -6 7 -7 7 -1 -1 -18
-5 -37 -9z"/>
<path d="M2771 5374 c0 -11 3 -14 6 -6 3 7 2 16 -1 19 -3 4 -6 -2 -5 -13z"/>
<path d="M2803 5369 c3 -9 1 -21 -5 -27 -6 -6 -6 -12 0 -16 13 -8 42 3 42 16
0 6 -7 7 -16 4 -8 -3 -13 -2 -10 2 2 4 0 14 -6 22 -8 13 -9 12 -5 -1z"/>
<path d="M2620 5357 c0 -8 -8 -18 -17 -20 -17 -4 -17 -5 0 -6 18 -1 35 25 23
36 -3 4 -6 -1 -6 -10z"/>
<path d="M3222 5350 c0 -14 2 -19 5 -12 2 6 2 18 0 25 -3 6 -5 1 -5 -13z"/>
<path d="M4152 5297 c-37 -25 -99 -99 -114 -137 -16 -42 -10 -209 10 -242 9
-15 21 -27 26 -25 5 2 17 26 27 54 15 46 16 58 3 124 -17 88 -17 92 -4 84 5
-3 14 -24 20 -47 7 -23 15 -37 20 -32 5 5 22 43 39 84 36 90 40 71 7 -31 -26
-78 -21 -93 23 -70 11 6 28 11 38 11 10 0 -7 -17 -42 -40 -61 -41 -78 -62 -90
-117 -12 -58 27 -42 111 44 68 71 75 82 80 128 8 64 -10 154 -39 197 -28 41
-68 47 -115 15z"/>
<path d="M4098 5303 c7 -3 16 -2 19 1 4 3 -2 6 -13 5 -11 0 -14 -3 -6 -6z"/>
<path d="M2546 5265 c18 -14 18 -16 2 -26 -10 -5 -18 -15 -18 -20 0 -6 7 -3
16 6 9 9 18 14 21 12 7 -8 -9 -57 -18 -57 -5 0 -9 -10 -9 -22 0 -21 0 -21 15
-2 8 10 15 25 15 32 0 7 9 22 20 34 21 22 17 46 -5 28 -9 -8 -14 -5 -18 10 -3
11 -13 20 -23 20 -16 0 -16 -1 2 -15z"/>
<path d="M4007 5264 c6 -16 34 -16 40 1 2 6 -8 12 -22 13 -18 1 -23 -2 -18
-14z"/>
<path d="M2355 5204 c-28 -28 -41 -35 -61 -30 -33 9 -86 -16 -103 -46 -8 -16
-11 -43 -9 -69 4 -30 -1 -58 -14 -88 l-20 -43 22 -42 c22 -41 23 -41 79 -41
55 1 57 0 89 -45 17 -25 32 -49 32 -55 0 -6 11 -22 25 -37 14 -15 25 -32 25
-38 0 -26 25 -1 28 27 2 21 -7 45 -32 82 -20 29 -36 55 -36 58 0 3 -13 22 -30
43 -29 37 -29 39 -16 81 17 55 99 212 113 216 14 5 22 -54 9 -67 -7 -7 -7 -10
1 -10 6 0 16 -21 23 -47 8 -27 14 -50 15 -53 19 -56 54 -95 41 -46 -5 19 -3
26 8 26 8 0 17 -8 20 -17 8 -21 23 -7 28 26 6 48 27 34 31 -21 2 -38 4 -29 5
33 2 69 6 89 22 106 16 17 17 23 6 32 -11 9 -23 -3 -56 -54 -23 -36 -46 -65
-50 -65 -4 0 -12 26 -18 58 -25 135 -31 149 -64 156 -58 11 -77 6 -113 -30z"/>
<path d="M2597 5215 c-9 -23 11 -28 23 -5 8 16 8 20 -4 20 -7 0 -16 -7 -19
-15z"/>
<path d="M3590 5192 c-35 -36 -60 -116 -60 -197 0 -56 3 -64 33 -94 19 -17 44
-51 56 -75 12 -24 28 -49 36 -56 13 -10 8 -19 -30 -58 -50 -50 -55 -67 -25
-75 11 -3 18 -1 15 3 -11 17 17 21 29 5 7 -10 19 -15 27 -12 11 4 10 6 -2 6
-22 1 -32 30 -18 48 9 10 14 11 19 3 4 -7 10 7 14 30 6 37 4 71 -9 135 -2 11
-27 49 -54 85 -56 72 -59 91 -6 40 19 -18 37 -31 40 -28 3 2 1 29 -5 58 -5 29
-10 69 -9 89 1 26 7 11 22 -56 12 -50 25 -94 28 -98 12 -11 42 49 59 117 19
78 14 92 -42 126 -59 35 -85 36 -118 4z"/>
<path d="M3865 5130 l-7 -90 -30 45 c-45 67 -53 44 -12 -36 31 -63 35 -77 32
-136 l-3 -66 -31 26 c-28 24 -54 35 -54 23 0 -3 18 -22 41 -44 l40 -40 -3 -94
-3 -93 57 -30 c60 -32 112 -76 131 -110 6 -11 16 -42 22 -70 l12 -50 99 0 99
0 3 -35 c2 -19 8 -40 14 -47 5 -7 7 -17 3 -22 -3 -6 0 -9 7 -6 8 3 27 -8 42
-24 l29 -30 -99 3 c-82 2 -106 -1 -137 -17 -20 -10 -44 -16 -53 -13 -23 9 -37
-3 -23 -20 6 -7 15 -11 20 -8 10 6 10 -135 0 -181 l-6 -30 -80 -1 c-86 0 -105
4 -84 17 11 7 11 9 -2 9 -9 0 -19 -7 -23 -15 -3 -10 -19 -15 -46 -15 -32 0
-42 4 -48 21 -5 11 -10 20 -12 19 -3 -1 -12 1 -20 4 -44 14 -68 12 -80 -7 -10
-17 -10 -19 4 -14 10 4 16 1 16 -7 0 -10 -19 -14 -72 -15 -40 -1 -111 -4 -158
-7 -47 -2 -101 -4 -120 -4 -19 0 -55 1 -80 1 -74 0 -110 8 -110 26 0 14 -2 14
-19 -1 -14 -13 -33 -16 -72 -14 -50 3 -54 5 -51 26 3 21 0 23 -30 20 -25 -2
-33 -8 -33 -23 0 -19 -7 -20 -134 -21 -171 0 -186 2 -188 29 -1 12 -5 58 -9
101 -6 71 -5 79 10 73 10 -4 16 -1 16 8 0 8 1 18 3 22 1 4 -12 8 -29 9 -17 1
-42 7 -55 15 -13 7 -38 13 -55 13 -24 1 -48 16 -105 69 l-73 68 38 -4 c32 -4
43 0 63 21 13 14 21 32 18 40 -3 7 -6 30 -6 50 -1 37 -1 37 -9 7 l-7 -30 -11
25 c-6 14 -11 22 -11 18 -1 -5 -10 1 -21 12 -12 12 -18 26 -14 32 4 6 1 9 -7
6 -8 -3 -29 8 -48 24 -40 36 -62 25 -42 -19 7 -16 11 -28 9 -29 -1 -1 13 -14
32 -30 19 -16 43 -36 52 -44 10 -8 18 -17 18 -20 0 -3 -26 -6 -57 -7 -35 -2
-63 -8 -72 -17 -13 -14 -13 -18 6 -38 11 -13 19 -28 16 -35 -2 -6 1 -14 6 -18
7 -4 8 1 4 12 -3 10 19 -4 49 -32 31 -27 56 -54 57 -58 1 -4 -32 -7 -71 -5
-61 2 -73 0 -76 -13 -7 -38 20 -46 167 -45 l140 1 8 -70 c10 -91 10 -88 -4
-92 -7 -3 -13 3 -13 12 0 9 -4 14 -9 11 -11 -7 10 -55 23 -53 5 1 10 -3 13
-10 3 -8 -33 -11 -137 -11 -85 0 -146 -4 -152 -10 -17 -17 -1 -42 32 -48 16
-4 30 -11 30 -16 0 -6 7 -8 15 -4 9 3 15 0 15 -9 0 -8 -13 -15 -32 -17 -35 -3
-52 -28 -19 -28 12 0 21 -4 21 -10 0 -5 -8 -10 -17 -10 -14 0 -15 -2 -4 -9 7
-5 11 -13 7 -19 -3 -6 -2 -13 4 -17 6 -4 7 -12 3 -18 -4 -7 -6 -22 -4 -35 1
-13 -5 -32 -14 -42 -16 -18 -16 -19 4 -32 18 -11 21 -23 22 -88 0 -41 4 -84 8
-95 5 -12 4 -25 -2 -33 -7 -9 -7 -20 1 -35 6 -12 14 -36 17 -53 14 -71 83
-102 225 -98 50 1 82 -3 96 -12 17 -12 23 -12 32 -1 7 9 35 13 84 12 41 -1 77
3 81 9 6 7 10 7 13 1 2 -6 27 -9 55 -8 30 2 63 -4 80 -13 24 -12 30 -12 34 -1
8 19 285 18 308 -2 14 -11 20 -11 34 0 12 11 50 13 162 11 198 -4 189 -4 253
0 31 2 60 7 64 10 4 4 16 2 27 -3 11 -6 46 -9 79 -7 40 3 62 0 69 -9 9 -10 15
-10 33 0 11 6 46 12 77 13 82 2 143 40 154 98 3 17 11 41 17 53 8 16 8 26 0
36 -8 9 -8 33 0 87 8 51 8 75 1 77 -6 2 2 18 18 35 34 38 25 58 -28 58 -32 0
-35 2 -29 23 3 12 6 31 6 41 0 20 0 20 14 0 8 -10 10 -20 5 -22 -18 -7 -9 -32
12 -32 14 0 19 5 16 14 -3 8 -1 17 6 19 9 3 9 9 -1 26 -10 17 -10 21 0 21 10
0 9 3 -1 9 -11 7 -10 11 4 19 19 10 12 32 -10 32 -9 0 -12 6 -8 17 5 12 2 15
-10 10 -18 -7 -33 8 -18 18 6 3 8 12 4 20 -3 9 1 15 10 15 9 0 18 -13 22 -31
8 -34 30 -34 30 0 0 13 8 27 18 32 19 11 22 34 6 45 -6 4 -46 8 -88 9 -50 2
-75 6 -74 14 2 6 -4 11 -12 11 -8 0 -15 -6 -15 -14 0 -10 -13 -13 -47 -12
l-47 2 3 44 c1 25 6 72 9 105 l7 59 135 -1 c74 0 140 2 147 4 6 3 19 16 28 30
10 14 13 23 8 20 -5 -3 -46 30 -92 74 l-84 79 44 0 c58 0 71 12 57 53 -11 29
-9 33 28 63 44 37 41 57 -4 25 -17 -12 -34 -21 -39 -21 -5 0 -19 18 -31 39
-25 44 -76 92 -124 117 -26 14 -29 18 -15 25 8 5 43 12 76 15 43 5 61 11 61
21 0 11 -12 14 -47 13 -27 -1 -52 -1 -56 -1 -5 1 6 21 24 45 31 44 77 67 153
78 11 2 21 9 24 17 4 11 -5 13 -47 7 -28 -4 -51 -4 -51 -1 0 3 23 38 50 77 28
39 50 75 50 80 0 20 -20 3 -65 -57 -27 -36 -53 -65 -57 -65 -3 0 -4 25 -1 55
4 35 2 55 -5 55 -14 0 -21 -22 -28 -98 -5 -54 -13 -77 -41 -119 -40 -60 -53
-66 -53 -24 0 25 -24 60 -34 50 -2 -2 0 -28 6 -58 12 -69 6 -85 -30 -76 -15 4
-28 8 -29 9 -4 3 33 115 40 122 8 9 9 54 1 54 -24 0 -46 -29 -65 -90 -13 -39
-29 -70 -36 -70 -17 0 -17 2 9 81 19 60 20 72 8 94 -7 14 -16 25 -19 25 -4 0
-16 -33 -29 -72 -32 -105 -36 -110 -68 -70 -14 17 -32 32 -40 32 -25 0 -15 15
41 64 51 44 67 66 46 66 -4 0 -30 -16 -56 -36 l-48 -37 5 66 c4 62 6 68 51
116 44 47 57 71 39 71 -5 0 -21 -13 -37 -30 -16 -16 -32 -30 -37 -30 -4 0 -8
43 -8 95 0 52 -4 95 -9 95 -5 0 -12 -41 -16 -90z m-1382 -1274 c5 -7 10 -6 17
4 5 8 10 10 10 5 0 -15 -21 -35 -38 -35 -8 0 -12 6 -8 15 3 8 1 15 -4 15 -5 0
-11 -12 -13 -27 -3 -23 -4 -21 -6 9 -1 32 2 36 17 31 9 -4 20 -11 25 -17z
m117 9 c16 10 112 14 133 5 17 -7 12 -9 -25 -9 -30 -1 -48 -5 -48 -13 0 -6 -6
-4 -13 6 -13 18 -14 18 -32 0 -10 -11 -21 -18 -24 -16 -3 2 -7 -4 -9 -12 -2
-10 4 -16 15 -16 15 0 15 -2 3 -9 -21 -14 -30 -4 -30 33 0 33 12 56 18 37 2
-6 7 -9 12 -6z m270 6 c3 -1 -2 -6 -10 -11 -12 -8 -13 -13 -2 -30 6 -11 12
-25 12 -32 -1 -7 -9 5 -20 27 -13 27 -19 34 -20 20 0 -17 -2 -17 -10 -5 -21
33 -2 45 50 31z m55 0 c3 -5 -2 -16 -10 -24 -8 -9 -15 -21 -15 -27 0 -6 -4 -9
-9 -6 -5 4 -5 19 2 36 12 31 21 37 32 21z m55 1 c0 -12 -41 -54 -47 -48 -3 2
3 16 14 30 18 25 33 33 33 18z m74 -32 c-3 -21 1 -30 11 -30 20 0 19 -14 -1
-31 -13 -10 -17 -10 -24 0 -4 8 -13 10 -19 7 -6 -4 -11 0 -11 8 0 9 -7 16 -15
16 -18 0 -20 -26 -2 -33 7 -4 8 -6 1 -6 -6 -1 -18 6 -25 16 -11 13 -11 17 -1
20 6 3 12 11 12 19 0 16 16 19 25 4 12 -19 36 -11 35 13 -3 32 -1 39 9 33 5
-3 7 -19 5 -36z m70 8 c-8 -13 -31 -9 -37 6 -4 9 1 16 11 18 18 4 34 -11 26
-24z m111 23 c3 -5 1 -12 -5 -16 -5 -3 -10 1 -10 9 0 18 6 21 15 7z m155 -1
c14 -4 21 -8 16 -9 -5 -1 -3 -8 4 -16 8 -9 8 -15 2 -15 -6 0 -12 5 -14 12 -5
15 -28 1 -28 -17 0 -7 14 -16 30 -20 17 -4 30 -11 30 -16 0 -10 -28 -8 -48 4
-21 14 -51 -1 -45 -23 6 -22 14 -25 30 -9 7 7 12 6 16 -5 4 -11 0 -16 -13 -17
-11 -1 -25 -2 -32 -3 -7 -1 -15 10 -18 24 -5 18 -12 24 -28 23 -39 -5 -23 15
18 22 25 4 40 12 40 21 0 8 5 14 10 14 6 0 10 6 10 14 0 10 -13 16 -37 19
l-38 4 35 0 c19 1 46 -3 60 -7z m110 -49 c-1 -44 -3 -52 -11 -38 -7 12 -17 16
-30 12 -10 -4 -19 -2 -19 3 0 5 9 12 20 15 26 7 26 34 0 42 -26 8 -19 20 14
21 25 2 26 0 26 -55z m180 47 c0 -5 7 -8 15 -8 8 0 15 -6 15 -14 0 -9 -7 -12
-20 -9 -13 4 -20 0 -20 -10 0 -20 26 -41 35 -27 11 18 33 11 28 -9 -4 -15 -13
-19 -39 -18 -19 1 -34 8 -35 15 -1 6 -3 17 -4 22 -1 6 -3 18 -5 28 -1 10 -3
12 -7 5 -6 -17 -24 -17 -20 -1 1 7 -8 14 -20 16 -18 3 -21 -1 -21 -30 1 -61
-2 -78 -12 -78 -6 0 -10 28 -10 63 l0 64 60 -1 c33 -1 60 -4 60 -8z m82 -20
c2 -26 8 -33 25 -33 12 0 25 -4 29 -8 4 -4 2 -7 -5 -7 -8 0 -11 -7 -7 -15 4
-12 -3 -15 -32 -15 -27 0 -33 3 -22 10 13 8 13 13 2 30 -7 11 -10 25 -6 31 3
5 0 16 -6 24 -10 12 -9 15 3 15 10 0 17 -11 19 -32z m59 15 c0 -15 2 -15 8 2
8 19 8 19 15 -3 4 -12 11 -20 16 -17 5 3 11 1 15 -5 4 -6 -8 -10 -29 -10 -25
0 -36 4 -36 15 0 8 -5 15 -11 15 -5 0 -7 5 -4 10 10 16 25 12 26 -7z m139 10
c0 -5 -5 -15 -10 -23 -8 -12 -10 -11 -10 8 0 12 5 22 10 22 6 0 10 -3 10 -7z
m40 -8 c7 -8 16 -15 21 -15 5 0 9 7 9 15 0 8 7 15 15 15 17 0 20 -16 5 -25 -6
-4 -8 -10 -5 -15 3 -4 -12 -10 -33 -12 -41 -6 -53 -1 -33 11 9 6 10 11 2 15
-13 8 -15 26 -2 26 5 0 14 -7 21 -15z m115 1 c-18 -13 -18 -13 1 -24 17 -10
17 -11 -8 -12 -20 0 -26 4 -22 15 4 8 1 15 -6 15 -6 0 -8 5 -5 10 3 6 18 10
33 10 24 0 25 -1 7 -14z m95 -16 c8 13 10 12 10 -2 0 -12 -8 -18 -24 -18 -20
0 -22 4 -18 27 l5 27 9 -24 c7 -20 11 -22 18 -10z m37 -2 c-3 -7 -5 -2 -5 12
0 14 2 19 5 13 2 -7 2 -19 0 -25z m-977 3 c0 -5 6 -11 13 -14 6 -2 5 -3 -4 -2
-24 4 -49 -30 -50 -68 -1 -17 -3 -24 -6 -14 -5 20 -19 22 -27 5 -3 -7 -4 7 -3
32 2 43 3 45 30 42 19 -2 27 2 27 13 0 8 5 15 10 15 6 0 10 -4 10 -9z m-510
-15 c0 -8 -7 -17 -16 -20 -8 -3 -13 -10 -9 -15 3 -5 1 -12 -5 -16 -14 -9 -12
33 3 50 16 18 27 19 27 1z m-371 -55 c1 -45 0 -49 -19 -44 -11 3 -20 9 -20 14
0 5 7 6 15 3 20 -8 20 20 0 36 -11 9 -12 17 -4 31 15 30 26 15 28 -40z m155
50 c4 -5 2 -20 -3 -33 -10 -22 -10 -22 -10 6 -1 21 -5 27 -17 22 -8 -3 -12 -2
-9 4 8 13 32 13 39 1z m1690 -38 c-20 -15 -36 -13 -42 5 -2 7 7 12 22 12 14 0
26 6 27 13 0 8 2 7 6 -2 3 -8 -3 -20 -13 -28z m-1404 1 c0 -8 -4 -12 -10 -9
-5 3 -10 10 -10 16 0 5 5 9 10 9 6 0 10 -7 10 -16z m100 -18 c0 -5 -7 -3 -15
4 -8 7 -12 17 -9 22 7 10 24 -9 24 -26z m203 14 c-3 -11 -11 -20 -18 -20 -8 0
-11 8 -8 20 3 11 11 20 18 20 8 0 11 -8 8 -20z m492 -10 c2 -22 -21 -47 -32
-36 -4 3 -1 12 5 18 7 7 12 21 12 32 0 25 13 12 15 -14z m332 17 c11 4 14 2 9
-5 -11 -18 -36 -14 -35 6 0 9 3 12 5 5 3 -7 12 -9 21 -6z m49 -12 c-3 -8 -1
-15 5 -15 6 0 7 -5 4 -10 -5 -8 -11 -7 -21 1 -11 9 -11 15 -3 25 15 18 23 18
15 -1z m64 -5 c0 -11 -2 -20 -4 -20 -2 0 -6 9 -9 20 -3 11 -1 20 4 20 5 0 9
-9 9 -20z m50 10 c0 -5 -4 -10 -10 -10 -5 0 -10 5 -10 10 0 6 5 10 10 10 6 0
10 -4 10 -10z m203 -19 c-4 -4 -11 -10 -15 -15 -5 -5 -8 3 -8 19 0 24 2 26 15
15 9 -7 12 -16 8 -19z m-1566 -3 c-3 -8 -6 -5 -6 6 -1 11 2 17 5 13 3 -3 4
-12 1 -19z m-243 4 c2 -4 1 -14 -3 -21 -6 -9 -10 -7 -14 8 -5 20 7 29 17 13z
m76 -48 c0 -2 -4 -4 -10 -4 -5 0 -10 6 -10 14 0 8 -8 13 -17 11 -10 -1 -12 0
-5 2 6 3 12 12 12 21 0 11 6 6 15 -12 8 -15 15 -30 15 -32z m36 29 c-10 -10
-19 5 -10 18 6 11 8 11 12 0 2 -7 1 -15 -2 -18z m247 -4 c-15 -30 -53 -41 -53
-15 0 9 7 12 20 9 22 -6 29 22 8 30 -7 2 -1 4 13 4 26 0 26 0 12 -28z m594 9
c-3 -8 -6 -5 -6 6 -1 11 2 17 5 13 3 -3 4 -12 1 -19z m-776 -8 c19 0 28 -4 24
-11 -4 -6 -14 -8 -22 -5 -9 4 -21 2 -28 -4 -9 -8 -12 -4 -12 17 0 16 2 22 4
16 3 -7 18 -13 34 -13z m283 4 c9 -22 -3 -32 -14 -14 -12 19 -12 30 -1 30 5 0
12 -7 15 -16z m299 -5 c4 -3 2 -11 -6 -18 -12 -9 -14 -7 -14 14 0 14 2 22 6
18 3 -4 10 -10 14 -14z m938 -6 c-12 -20 -14 -14 -5 12 4 9 9 14 11 11 3 -2 0
-13 -6 -23z m-266 -13 c-6 -9 -9 -9 -16 1 -10 17 0 34 13 21 6 -6 7 -16 3 -22z
m-830 -8 c-3 -3 -11 0 -18 7 -9 10 -8 11 6 5 10 -3 15 -9 12 -12z m641 -9 c-7
-7 -26 7 -26 19 0 6 6 6 15 -2 9 -7 13 -15 11 -17z m59 18 c3 -6 -4 -9 -15 -8
-11 1 -20 5 -20 9 0 11 28 10 35 -1z m-1349 -26 c-1 -29 -16 -35 -16 -7 0 16
8 32 16 32 1 0 1 -11 0 -25z m544 15 c0 -5 -4 -10 -10 -10 -5 0 -10 5 -10 10
0 6 5 10 10 10 6 0 10 -4 10 -10z m1066 -20 c0 -14 -7 -20 -21 -19 -11 0 -14
3 -7 6 6 2 12 11 12 19 0 8 4 14 8 14 4 0 8 -9 8 -20z m-1676 -24 c0 -18 -6
-22 -32 -23 -22 0 -25 1 -10 4 19 4 23 9 18 29 -5 18 -3 22 9 18 8 -4 15 -16
15 -28z m1730 24 c0 -5 -4 -10 -9 -10 -6 0 -13 5 -16 10 -3 6 1 10 9 10 9 0
16 -4 16 -10z m-1590 -10 c0 -5 -5 -10 -11 -10 -5 0 -7 5 -4 10 3 6 8 10 11
10 2 0 4 -4 4 -10z m120 0 c12 -8 11 -10 -7 -10 -13 0 -23 5 -23 10 0 13 11
13 30 0z m660 0 c0 -5 -5 -10 -11 -10 -5 0 -7 5 -4 10 3 6 8 10 11 10 2 0 4
-4 4 -10z m-467 -7 c-7 -2 -19 -2 -25 0 -7 3 -2 5 12 5 14 0 19 -2 13 -5z
m274 1 c-3 -3 -12 -4 -19 -1 -8 3 -5 6 6 6 11 1 17 -2 13 -5z m373 -14 c0 -11
-7 -20 -15 -20 -13 0 -13 3 -3 20 7 11 14 20 15 20 2 0 3 -9 3 -20z m-271 -18
c-14 -5 -39 6 -39 17 0 5 11 4 25 -2 13 -7 20 -14 14 -15z m-714 8 c3 -5 -1
-10 -10 -10 -9 0 -13 5 -10 10 3 6 8 10 10 10 2 0 7 -4 10 -10z m565 -4 c8 -2
-16 -4 -55 -5 -38 0 -65 3 -58 7 11 7 77 6 113 -2z m55 4 c3 -5 -1 -10 -10
-10 -9 0 -13 5 -10 10 3 6 8 10 10 10 2 0 7 -4 10 -10z m302 -4 c3 -3 -17 -6
-46 -6 -29 0 -50 4 -47 9 6 9 83 7 93 -3z m173 4 c0 -5 -7 -10 -16 -10 -8 0
-12 5 -9 10 3 6 10 10 16 10 5 0 9 -4 9 -10z m255 0 c3 -5 -1 -10 -10 -10 -9
0 -13 5 -10 10 3 6 8 10 10 10 2 0 7 -4 10 -10z m105 0 c0 -5 -5 -10 -11 -10
-5 0 -7 5 -4 10 3 6 8 10 11 10 2 0 4 -4 4 -10z m55 0 c4 -6 -6 -10 -22 -9
-25 0 -26 1 -8 9 11 5 21 9 22 9 1 1 5 -3 8 -9z m65 -6 c0 -2 -12 -4 -27 -4
-21 0 -24 3 -14 9 13 8 41 5 41 -5z m90 0 c0 -2 -19 -3 -42 -3 -39 1 -41 2
-13 8 28 7 55 4 55 -5z m-1573 0 c-3 -3 -12 -4 -19 -1 -8 3 -5 6 6 6 11 1 17
-2 13 -5z m86 -1 c-13 -2 -33 -2 -45 0 -13 2 -3 4 22 4 25 0 35 -2 23 -4z
m180 0 c-7 -2 -21 -2 -30 0 -10 3 -4 5 12 5 17 0 24 -2 18 -5z m435 0 c-10 -2
-28 -2 -40 0 -13 2 -5 4 17 4 22 1 32 -1 23 -4z m435 0 c-7 -2 -21 -2 -30 0
-10 3 -4 5 12 5 17 0 24 -2 18 -5z m64 1 c-3 -3 -12 -4 -19 -1 -8 3 -5 6 6 6
11 1 17 -2 13 -5z m-1417 -64 c-20 -13 -40 -13 -40 0 0 6 12 10 28 10 21 0 24
-2 12 -10z m83 3 c-7 -2 -21 -2 -30 0 -10 3 -4 5 12 5 17 0 24 -2 18 -5z m187
-1 c0 -5 -13 -7 -30 -4 -16 2 -30 6 -30 8 0 2 14 4 30 4 17 0 30 -4 30 -8z
m183 1 c-7 -2 -21 -2 -30 0 -10 3 -4 5 12 5 17 0 24 -2 18 -5z m80 0 c-7 -2
-19 -2 -25 0 -7 3 -2 5 12 5 14 0 19 -2 13 -5z m119 -9 c-9 -7 -19 -9 -22 -6
-3 4 -9 10 -13 13 -4 3 6 6 23 6 26 0 27 -2 12 -13z m65 -6 c-3 -8 -6 -5 -6 6
-1 11 2 17 5 13 3 -3 4 -12 1 -19z m203 12 c0 -5 -4 -10 -10 -10 -5 0 -10 5
-10 10 0 6 5 10 10 10 6 0 10 -4 10 -10z m80 6 c0 -11 -19 -15 -25 -6 -3 5 1
10 9 10 9 0 16 -2 16 -4z m103 -3 c-7 -2 -19 -2 -25 0 -7 3 -2 5 12 5 14 0 19
-2 13 -5z m137 3 c0 -2 -11 -6 -25 -8 -13 -3 -22 -1 -19 3 5 9 44 13 44 5z
m63 -16 c3 -11 1 -20 -4 -20 -5 0 -9 9 -9 20 0 11 2 20 4 20 2 0 6 -9 9 -20z
m357 13 c-8 -3 -18 -10 -21 -15 -3 -5 -9 -3 -12 6 -5 12 0 16 21 15 16 0 21
-3 12 -6z m100 -3 c0 -5 -2 -10 -4 -10 -3 0 -8 5 -11 10 -3 6 -1 10 4 10 6 0
11 -4 11 -10z m137 -1 c-14 -8 -22 -8 -30 0 -8 8 -3 11 19 11 25 -1 27 -2 11
-11z m-1777 -19 c0 -5 -5 -10 -11 -10 -5 0 -7 5 -4 10 3 6 8 10 11 10 2 0 4
-4 4 -10z m30 -10 c0 -5 -5 -10 -11 -10 -5 0 -7 5 -4 10 3 6 8 10 11 10 2 0 4
-4 4 -10z m1337 4 c-3 -3 -12 -4 -19 -1 -8 3 -5 6 6 6 11 1 17 -2 13 -5z m83
2 c0 -3 -4 -8 -10 -11 -5 -3 -10 -1 -10 4 0 6 5 11 10 11 6 0 10 -2 10 -4z
m37 -2 c-3 -3 -12 -4 -19 -1 -8 3 -5 6 6 6 11 1 17 -2 13 -5z m-237 -30 c0 -8
-5 -12 -10 -9 -6 4 -8 11 -5 16 9 14 15 11 15 -7z m380 -88 c0 -3 -4 -8 -10
-11 -5 -3 -10 -1 -10 4 0 6 5 11 10 11 6 0 10 -2 10 -4z"/>
<path d="M3200 3800 c0 -11 5 -20 10 -20 6 0 10 9 10 20 0 11 -4 20 -10 20 -5
0 -10 -9 -10 -20z"/>
<path d="M3337 5185 c-12 -29 -45 -181 -52 -235 -13 -100 -23 -85 -29 46 -7
146 -14 177 -39 182 -14 3 -17 -4 -17 -41 0 -59 -10 -108 -21 -101 -5 3 -9 16
-9 30 0 13 -9 33 -20 44 -20 20 -20 20 -25 -3 -3 -12 12 -87 33 -167 22 -80
43 -164 46 -186 6 -35 12 -43 38 -50 38 -11 67 -48 74 -95 5 -32 -1 -46 -46
-115 -28 -43 -61 -89 -73 -101 l-20 -23 29 -1 c45 -2 116 1 148 8 28 5 28 6
23 59 -5 52 -5 54 39 96 24 23 44 46 44 50 0 5 -11 8 -25 8 -18 0 -25 5 -25
20 0 11 -5 19 -12 18 -7 -2 -15 14 -19 37 -4 22 -10 52 -13 68 -7 30 -1 34 20
12 9 -8 22 -15 30 -15 26 0 14 25 -19 40 -29 13 -32 20 -35 62 -2 37 2 55 24
87 15 23 30 41 33 41 8 0 31 105 31 143 0 56 -43 41 -60 -22 -5 -20 -12 -58
-15 -84 -11 -84 -20 -40 -16 78 2 68 -1 115 -7 119 -5 3 -12 -1 -15 -9z m33
-762 c0 -21 -3 -24 -9 -14 -5 8 -7 20 -4 28 8 21 13 15 13 -14z"/>
<path d="M2561 5104 c0 -11 3 -14 6 -6 3 7 2 16 -1 19 -3 4 -6 -2 -5 -13z"/>
<path d="M2390 4994 c0 -8 5 -12 10 -9 6 4 8 11 5 16 -9 14 -15 11 -15 -7z"/>
<path d="M2465 4950 c3 -5 8 -10 11 -10 2 0 4 5 4 10 0 6 -5 10 -11 10 -5 0
-7 -4 -4 -10z"/>
<path d="M3710 4909 c-14 -25 -7 -116 10 -133 20 -20 31 16 24 79 -7 70 -17
86 -34 54z"/>
<path d="M2412 4903 c-9 -16 -8 -23 2 -32 19 -16 28 1 18 30 l-9 23 -11 -21z"/>
<path d="M2482 4838 c-25 -77 -23 -83 30 -94 15 -4 36 -15 48 -26 14 -13 40
-21 78 -24 52 -4 55 -3 32 8 -14 8 -31 26 -38 41 -9 18 -21 27 -37 27 -13 0
-27 5 -30 10 -3 6 -17 10 -31 10 -22 0 -28 8 -21 28 1 4 4 6 7 6 3 -1 26 -5
53 -8 l47 -7 -21 35 c-17 30 -66 66 -89 66 -3 0 -16 -32 -28 -72z"/>
<path d="M2621 4894 c0 -11 3 -14 6 -6 3 7 2 16 -1 19 -3 4 -6 -2 -5 -13z"/>
<path d="M2921 4884 c0 -11 3 -14 6 -6 3 7 2 16 -1 19 -3 4 -6 -2 -5 -13z"/>
<path d="M3400 4891 c0 -15 51 -120 61 -126 23 -15 17 25 -12 78 -27 51 -49
72 -49 48z"/>
<path d="M2857 4859 c4 -13 8 -18 11 -10 2 7 -1 18 -6 23 -8 8 -9 4 -5 -13z"/>
<path d="M2800 4861 c0 -6 4 -13 10 -16 6 -3 7 1 4 9 -7 18 -14 21 -14 7z"/>
<path d="M3001 4838 c-5 -14 -5 -28 1 -35 6 -7 6 -24 0 -47 -8 -27 -7 -36 4
-40 8 -3 14 -14 14 -25 0 -11 4 -22 9 -26 11 -6 24 103 19 155 -4 43 -33 54
-47 18z"/>
<path d="M3543 4823 c-18 -7 -16 -33 2 -33 8 0 15 9 15 20 0 11 -1 20 -2 19
-2 0 -9 -3 -15 -6z"/>
<path d="M2310 4781 c0 -6 5 -13 10 -16 6 -3 10 1 10 9 0 9 -4 16 -10 16 -5 0
-10 -4 -10 -9z"/>
<path d="M2346 4745 c4 -8 8 -15 10 -15 2 0 4 7 4 15 0 8 -4 15 -10 15 -5 0
-7 -7 -4 -15z"/>
<path d="M3746 4741 c-22 -24 -14 -52 22 -86 29 -27 42 -24 42 10 0 26 -29 95
-40 95 -4 0 -15 -9 -24 -19z"/>
<path d="M3553 4728 c-23 -29 -22 -35 2 -35 14 0 25 3 25 8 0 5 -4 9 -10 9 -5
0 -10 5 -10 11 0 7 10 9 26 5 17 -5 23 -3 19 4 -9 14 -40 13 -52 -2z"/>
<path d="M2360 4715 c0 -3 7 -17 16 -30 9 -13 13 -29 10 -34 -4 -5 -1 -13 5
-17 18 -10 3 53 -16 72 -8 9 -15 13 -15 9z"/>
<path d="M3480 4685 c-7 -9 -10 -18 -7 -21 7 -8 47 14 47 26 0 15 -26 12 -40
-5z"/>
<path d="M2330 4670 c0 -5 5 -10 10 -10 6 0 10 5 10 10 0 6 -4 10 -10 10 -5 0
-10 -4 -10 -10z"/>
<path d="M2600 4664 c0 -20 24 -45 37 -39 9 3 19 2 22 -3 3 -5 28 -26 55 -46
45 -34 47 -37 20 -32 -16 2 -35 5 -42 5 -7 1 -18 15 -23 31 -12 32 -29 40 -29
13 0 -24 -35 -93 -66 -128 -32 -37 -58 -85 -49 -93 3 -4 22 -5 41 -3 27 2 34
-1 34 -16 0 -15 2 -16 10 -3 8 12 41 15 187 16 l178 1 -2 33 c-3 60 -72 125
-146 137 -22 3 -47 14 -56 24 -8 11 -21 19 -29 19 -18 0 -64 48 -57 60 4 6 -7
10 -24 10 -16 0 -33 5 -36 10 -7 11 -25 14 -25 4z"/>
<path d="M2423 4565 c0 -44 2 -61 4 -37 2 23 2 59 0 80 -2 20 -4 1 -4 -43z"/>
<path d="M2361 4614 c0 -11 3 -14 6 -6 3 7 2 16 -1 19 -3 4 -6 -2 -5 -13z"/>
<path d="M2386 4568 c-3 -17 -2 -36 4 -42 7 -7 10 4 10 32 0 50 -5 54 -14 10z"/>
<path d="M3426 4524 c-9 -8 -13 -21 -9 -27 5 -8 9 -7 11 5 2 9 11 18 20 20 12
2 13 6 5 11 -6 4 -19 0 -27 -9z"/>
<path d="M2390 4500 c0 -5 5 -10 11 -10 5 0 7 5 4 10 -3 6 -8 10 -11 10 -2 0
-4 -4 -4 -10z"/>
<path d="M3386 4477 c3 -10 9 -15 12 -12 3 3 0 11 -7 18 -10 9 -11 8 -5 -6z"/>
<path d="M3425 4470 c-3 -5 -1 -10 4 -10 6 0 11 -4 11 -10 0 -5 -6 -10 -14
-10 -16 0 -28 -37 -15 -46 22 -13 39 6 39 46 0 38 -11 52 -25 30z"/>
<path d="M3990 4410 c0 -5 5 -10 10 -10 6 0 10 5 10 10 0 6 -4 10 -10 10 -5 0
-10 -4 -10 -10z"/>
<path d="M3555 4370 c4 -6 11 -8 16 -5 14 9 11 15 -7 15 -8 0 -12 -5 -9 -10z"/>
<path d="M3885 4370 c4 -6 11 -8 16 -5 14 9 11 15 -7 15 -8 0 -12 -5 -9 -10z"/>
<path d="M2620 4333 c0 -9 40 -36 45 -31 2 2 -8 11 -21 21 -13 10 -24 14 -24
10z"/>
<path d="M4397 4308 c7 -40 11 -44 23 -32 7 7 6 19 -2 37 -18 37 -29 34 -21
-5z"/>
<path d="M4450 4330 c0 -5 7 -10 15 -10 8 0 15 5 15 10 0 6 -7 10 -15 10 -8 0
-15 -4 -15 -10z"/>
<path d="M4016 4314 c-11 -7 -18 -16 -15 -18 2 -2 13 2 23 10 11 7 18 16 15
18 -2 2 -13 -2 -23 -10z"/>
<path d="M4188 4303 c7 -3 16 -2 19 1 4 3 -2 6 -13 5 -11 0 -14 -3 -6 -6z"/>
<path d="M2215 4281 c-3 -5 -1 -12 5 -16 5 -3 10 1 10 9 0 18 -6 21 -15 7z"/>
<path d="M2710 4265 c19 -14 36 -25 39 -25 10 0 -53 49 -63 50 -6 0 5 -11 24
-25z"/>
<path d="M4460 4279 c0 -5 5 -7 10 -4 6 3 10 8 10 11 0 2 -4 4 -10 4 -5 0 -10
-5 -10 -11z"/>
<path d="M4507 4270 c-3 -11 -1 -20 4 -20 5 0 9 9 9 20 0 11 -2 20 -4 20 -2 0
-6 -9 -9 -20z"/>
<path d="M2167 4240 c3 -11 12 -20 19 -20 12 0 12 4 2 20 -7 11 -16 20 -19 20
-4 0 -5 -9 -2 -20z"/>
<path d="M4226 4245 c-11 -8 -17 -17 -14 -20 3 -3 16 3 29 14 27 23 14 28 -15
6z"/>
<path d="M2495 4230 c-3 -5 -1 -10 4 -10 6 0 11 5 11 10 0 6 -2 10 -4 10 -3 0
-8 -4 -11 -10z"/>
<path d="M4470 4224 c0 -9 5 -14 12 -12 18 6 21 28 4 28 -9 0 -16 -7 -16 -16z"/>
<path d="M2273 4223 c9 -2 23 -2 30 0 6 3 -1 5 -18 5 -16 0 -22 -2 -12 -5z"/>
<path d="M4070 4220 c-13 -8 -13 -10 2 -10 9 0 20 5 23 10 8 13 -5 13 -25 0z"/>
<path d="M4178 4223 c7 -3 16 -2 19 1 4 3 -2 6 -13 5 -11 0 -14 -3 -6 -6z"/>
<path d="M2838 4193 c7 -3 16 -2 19 1 4 3 -2 6 -13 5 -11 0 -14 -3 -6 -6z"/>
<path d="M2670 4171 c0 -12 29 -35 36 -28 4 3 -1 13 -9 22 -17 17 -27 19 -27
6z"/>
<path d="M3980 4165 c-17 -21 -8 -28 15 -11 11 8 14 15 8 19 -6 4 -16 0 -23
-8z"/>
<path d="M2915 4160 c27 -12 43 -12 25 0 -8 5 -22 9 -30 9 -10 0 -8 -3 5 -9z"/>
<path d="M3730 4160 c-18 -12 -2 -12 25 0 13 6 15 9 5 9 -8 0 -22 -4 -30 -9z"/>
<path d="M2988 4133 c6 -2 18 -2 25 0 6 3 1 5 -13 5 -14 0 -19 -2 -12 -5z"/>
<path d="M3668 4133 c7 -3 16 -2 19 1 4 3 -2 6 -13 5 -11 0 -14 -3 -6 -6z"/>
<path d="M2503 4105 c-6 -7 -8 -18 -3 -26 7 -11 10 -10 15 3 10 24 2 38 -12
23z"/>
<path d="M2344 4103 c10 -11 126 -11 126 -1 0 4 -30 8 -67 8 -36 0 -63 -3 -59
-7z"/>
<path d="M2644 4101 c7 -11 46 -35 46 -28 0 3 -12 12 -26 22 -15 9 -23 12 -20
6z"/>
<path d="M3113 4103 c9 -2 23 -2 30 0 6 3 -1 5 -18 5 -16 0 -22 -2 -12 -5z"/>
<path d="M3543 4103 c9 -2 23 -2 30 0 6 3 -1 5 -18 5 -16 0 -22 -2 -12 -5z"/>
<path d="M4027 4099 c7 -7 15 -10 18 -7 3 3 -2 9 -12 12 -14 6 -15 5 -6 -5z"/>
<path d="M2623 4050 c0 -30 2 -43 4 -27 2 15 2 39 0 55 -2 15 -4 2 -4 -28z"/>
<path d="M3183 4093 c9 -2 23 -2 30 0 6 3 -1 5 -18 5 -16 0 -22 -2 -12 -5z"/>
<path d="M3448 4093 c7 -3 16 -2 19 1 4 3 -2 6 -13 5 -11 0 -14 -3 -6 -6z"/>
<path d="M3987 4083 c-10 -9 -9 -23 2 -23 5 0 11 7 15 15 5 15 -5 20 -17 8z"/>
<path d="M3922 4060 c-7 -11 -8 -20 -3 -20 9 0 24 30 18 36 -1 2 -8 -6 -15
-16z"/>
<path d="M2651 4054 c0 -11 3 -14 6 -6 3 7 2 16 -1 19 -3 4 -6 -2 -5 -13z"/>
<path d="M2727 4063 c-10 -9 -8 -33 2 -33 5 0 11 9 14 20 5 20 -3 26 -16 13z"/>
<path d="M3950 4036 c0 -15 6 -26 14 -26 17 0 16 42 -1 48 -8 2 -13 -6 -13
-22z"/>
<path d="M4391 4044 c0 -11 3 -14 6 -6 3 7 2 16 -1 19 -3 4 -6 -2 -5 -13z"/>
<path d="M2930 4030 c13 -23 23 -25 39 -7 14 17 4 27 -26 27 -21 0 -22 -3 -13
-20z"/>
<path d="M3705 4040 c-7 -12 2 -30 15 -30 5 0 14 9 20 20 9 17 8 20 -9 20 -11
0 -23 -4 -26 -10z"/>
<path d="M2271 4024 c0 -11 3 -14 6 -6 3 7 2 16 -1 19 -3 4 -6 -2 -5 -13z"/>
<path d="M2770 4030 c0 -5 5 -10 11 -10 5 0 7 5 4 10 -3 6 -8 10 -11 10 -2 0
-4 -4 -4 -10z"/>
<path d="M3985 4030 c-3 -5 1 -10 9 -10 8 0 18 5 21 10 3 6 -1 10 -9 10 -8 0
-18 -4 -21 -10z"/>
<path d="M4290 4025 c-10 -12 -10 -15 4 -15 9 0 16 7 16 15 0 8 -2 15 -4 15
-2 0 -9 -7 -16 -15z"/>
<path d="M2350 4020 c0 -5 9 -10 21 -10 11 0 17 5 14 10 -3 6 -13 10 -21 10
-8 0 -14 -4 -14 -10z"/>
<path d="M2830 4020 c-22 -3 -36 -11 -38 -22 -2 -10 1 -18 7 -18 6 0 11 7 11
15 0 8 7 15 15 15 18 0 20 -16 3 -23 -8 -3 -6 -6 5 -6 10 -1 20 6 24 15 5 13
7 13 14 2 5 -7 9 -8 9 -3 0 22 -17 30 -50 25z"/>
<path d="M2310 4010 c-8 -5 -12 -12 -9 -15 4 -3 12 1 19 10 14 17 11 19 -10 5z"/>
<path d="M2412 4013 c-18 -7 -4 -23 19 -23 12 0 19 5 17 12 -5 14 -18 18 -36
11z"/>
<path d="M2470 4005 c-7 -9 -10 -18 -7 -22 4 -3 2 -12 -4 -20 -9 -10 -5 -13
20 -13 22 0 31 5 31 16 0 14 -2 15 -17 3 -15 -13 -16 -11 -10 19 7 36 5 39
-13 17z"/>
<path d="M3801 4006 c-9 -11 -7 -15 9 -19 27 -7 25 -25 -2 -30 -17 -3 -15 -5
8 -6 24 -1 33 4 37 19 4 15 0 20 -16 20 -27 0 -10 17 23 23 19 3 16 5 -11 6
-20 0 -42 -5 -48 -13z"/>
<path d="M4340 4005 c7 -9 15 -13 17 -11 7 7 -7 26 -19 26 -6 0 -6 -6 2 -15z"/>
<path d="M2722 3993 c5 -26 38 -29 38 -4 0 15 -6 21 -21 21 -14 0 -19 -5 -17
-17z"/>
<path d="M3595 4000 c-19 -8 -19 -9 3 -9 12 -1 22 4 22 9 0 6 -1 10 -2 9 -2 0
-12 -4 -23 -9z"/>
<path d="M3982 3998 c7 -20 48 -23 48 -4 0 11 -9 16 -26 16 -16 0 -24 -5 -22
-12z"/>
<path d="M2327 3978 c-4 -12 -4 -24 -2 -26 8 -8 56 29 50 38 -11 18 -43 10
-48 -12z"/>
<path d="M4140 3980 c0 -11 4 -20 9 -20 5 0 7 9 4 20 -3 11 -7 20 -9 20 -2 0
-4 -9 -4 -20z"/>
<path d="M4293 3979 c-4 -15 -11 -19 -25 -15 -11 2 -17 2 -13 -2 4 -4 30 -7
58 -8 29 0 44 1 35 4 -10 2 -18 12 -18 23 0 26 -30 25 -37 -2z"/>
<path d="M3170 3986 c0 -2 7 -7 16 -10 8 -3 12 -2 9 4 -6 10 -25 14 -25 6z"/>
<path d="M3314 3979 c-9 -15 12 -33 30 -26 9 4 16 13 16 22 0 17 -35 21 -46 4z"/>
<path d="M3475 3980 c-3 -6 1 -7 9 -4 18 7 21 14 7 14 -6 0 -13 -4 -16 -10z"/>
<path d="M2870 3966 c0 -10 9 -16 21 -16 24 0 21 23 -4 28 -10 2 -17 -3 -17
-12z"/>
<path d="M2395 3960 c-4 -6 5 -10 20 -10 15 0 24 4 20 10 -3 6 -12 10 -20 10
-8 0 -17 -4 -20 -10z"/>
<path d="M2810 3960 c0 -5 5 -10 10 -10 6 0 10 5 10 10 0 6 -4 10 -10 10 -5 0
-10 -4 -10 -10z"/>
<path d="M2758 3953 c7 -3 16 -2 19 1 4 3 -2 6 -13 5 -11 0 -14 -3 -6 -6z"/>
<path d="M3978 3953 c12 -2 30 -2 40 0 9 3 -1 5 -23 4 -22 0 -30 -2 -17 -4z"/>
</g>
</svg>
